<?xml version="1.0" encoding="utf-8"?>
<!-- Generator: Adobe Illustrator 20.1.0, SVG Export Plug-In . SVG Version: 6.00 Build 0)  -->
<!DOCTYPE svg PUBLIC "-//W3C//DTD SVG 1.1//EN" "http://www.w3.org/Graphics/SVG/1.1/DTD/svg11.dtd">
<svg version="1.1" id="Layer_1" xmlns="http://www.w3.org/2000/svg" xmlns:xlink="http://www.w3.org/1999/xlink" x="0px" y="0px"
	 viewBox="0 0 1280 1024" style="enable-background:new 0 0 1280 1024;" xml:space="preserve">
<style type="text/css">
	.st0{fill:#9277B2;}
	.st1{font-family:'MyriadPro-Black';}
	.st2{font-size:240px;}
	.st3{fill:none;stroke:#000000;stroke-width:1.1362;stroke-miterlimit:10;}
</style>
<rect x="128" class="st0" width="1024" height="1024"/>
<text transform="matrix(1 0 0 1 214.1255 492.3204)"><tspan x="0" y="0" class="st1 st2">Coming</tspan><tspan x="145.3" y="180" class="st1 st2">Soon</tspan></text>
<polygon class="st3" points="151.6,1024 128,1016.3 128,1024 "/>
<polygon class="st3" points="166.8,1024 128,1011.4 128,1016.3 151.6,1024 "/>
<polygon class="st3" points="128,998.9 128,1011.4 166.8,1024 205.5,1024 "/>
<polygon class="st3" points="234,1024 128,989.7 128,998.9 205.5,1024 "/>
<polygon class="st3" points="128,979.9 128,989.7 234,1024 264.3,1024 "/>
<polygon class="st3" points="279.4,1024 128,975 128,979.9 264.3,1024 "/>
<polygon class="st3" points="128,965.7 128,975 279.4,1024 307.9,1024 "/>
<polygon class="st3" points="323.1,1024 128,960.8 128,965.7 307.9,1024 "/>
<polygon class="st3" points="128,951.6 128,960.8 323.1,1024 351.6,1024 "/>
<polygon class="st3" points="358.3,1024 128,949.4 128,951.6 351.6,1024 "/>
<polygon class="st3" points="128,942.3 128,949.4 358.3,1024 380.2,1024 "/>
<polygon class="st3" points="386.9,1024 128,940.1 128,942.3 380.2,1024 "/>
<polygon class="st3" points="128,933.1 128,940.1 386.9,1024 408.7,1024 "/>
<polygon class="st3" points="423.8,1024 128,928.2 128,933.1 408.7,1024 "/>
<polygon class="st3" points="128,923.3 128,928.2 423.8,1024 438.9,1024 "/>
<polygon class="st3" points="460.8,1024 128,916.2 128,923.3 438.9,1024 "/>
<polygon class="st3" points="128,909.7 128,916.2 460.8,1024 480.9,1024 "/>
<polygon class="st3" points="496,1024 128,904.8 128,909.7 480.9,1024 "/>
<polygon class="st3" points="128,898.2 128,904.8 496,1024 516.2,1024 "/>
<polygon class="st3" points="539.7,1024 128,890.6 128,898.2 516.2,1024 "/>
<polygon class="st3" points="128,881.4 128,890.6 539.7,1024 568.3,1024 "/>
<polygon class="st3" points="583.4,1024 128,876.5 128,881.4 568.3,1024 "/>
<polygon class="st3" points="128,872.1 128,876.5 583.4,1024 596.8,1024 "/>
<polygon class="st3" points="603.5,1024 128,870 128,872.1 596.8,1024 "/>
<polygon class="st3" points="128,867.8 128,870 603.5,1024 610.3,1024 "/>
<polygon class="st3" points="623.7,1024 128,863.4 128,867.8 610.3,1024 "/>
<polygon class="st3" points="128,860.7 128,863.4 623.7,1024 632.1,1024 "/>
<polygon class="st3" points="645.5,1024 128,856.4 128,860.7 632.1,1024 "/>
<polygon class="st3" points="1152,0 1148.7,0 1152,15.4 "/>
<polygon class="st3" points="1152,37.7 1152,15.4 1148.7,0 1144,0 "/>
<polygon class="st3" points="128,851.5 128,856.4 645.5,1024 660.6,1024 "/>
<polygon class="st3" points="128,847.1 128,851.5 660.6,1024 674.1,1024 "/>
<polygon class="st3" points="1139.7,0 1152,57.5 1152,37.7 1144,0 "/>
<polygon class="st3" points="1152,79.8 1152,57.5 1139.7,0 1135,0 "/>
<polygon class="st3" points="128,842.2 128,847.1 674.1,1024 689.2,1024 "/>
<polygon class="st3" points="1152,112.1 1152,79.8 1135,0 1128.1,0 "/>
<polygon class="st3" points="711,1024 128,835.1 128,842.2 689.2,1024 "/>
<polygon class="st3" points="1152,141.8 1152,112.1 1128.1,0 1121.7,0 "/>
<polygon class="st3" points="128,828.6 128,835.1 711,1024 731.2,1024 "/>
<polygon class="st3" points="1110.1,0 1152,196.3 1152,141.8 1121.7,0 "/>
<polygon class="st3" points="128,816.6 128,828.6 731.2,1024 768.1,1024 "/>
<polygon class="st3" points="1152,228.6 1152,196.3 1110.1,0 1103.2,0 "/>
<polygon class="st3" points="128,809.6 128,816.6 768.1,1024 789.9,1024 "/>
<polygon class="st3" points="1152,280.6 1152,228.6 1103.2,0 1092.1,0 "/>
<polygon class="st3" points="825.2,1024 128,798.1 128,809.6 789.9,1024 "/>
<polygon class="st3" points="1152,312.8 1152,280.6 1092.1,0 1085.2,0 "/>
<polygon class="st3" points="128,791.1 128,798.1 825.2,1024 847.1,1024 "/>
<polygon class="st3" points="128,786.2 128,791.1 847.1,1024 862.1,1024 "/>
<polygon class="st3" points="1080.5,0 1152,335.1 1152,312.8 1085.2,0 "/>
<polygon class="st3" points="128,781.3 128,786.2 862.1,1024 877.2,1024 "/>
<polygon class="st3" points="1152,357.4 1152,335.1 1080.5,0 1075.7,0 "/>
<polygon class="st3" points="1152,379.7 1152,357.4 1075.7,0 1070.9,0 "/>
<polygon class="st3" points="892.3,1024 128,776.4 128,781.3 877.2,1024 "/>
<polygon class="st3" points="128,769.9 128,776.4 892.3,1024 912.5,1024 "/>
<polygon class="st3" points="1152,409.5 1152,379.7 1070.9,0 1064.6,0 "/>
<polygon class="st3" points="1059.3,0 1152,434.1 1152,409.5 1064.6,0 "/>
<polygon class="st3" points="128,764.5 128,769.9 912.5,1024 929.2,1024 "/>
<polygon class="st3" points="1152,464 1152,434.1 1059.3,0 1052.9,0 "/>
<polygon class="st3" points="128,757.9 128,764.5 929.2,1024 949.4,1024 "/>
<polygon class="st3" points="1152,518.4 1152,464 1052.9,0 1041.3,0 "/>
<polygon class="st3" points="986.3,1024 128,746 128,757.9 949.4,1024 "/>
<polygon class="st3" points="128,738.9 128,746 986.3,1024 1008.1,1024 "/>
<polygon class="st3" points="1152,550.6 1152,518.4 1041.3,0 1034.4,0 "/>
<polygon class="st3" points="128,729.1 128,738.9 1008.1,1024 1038.3,1024 "/>
<polygon class="st3" points="1024.9,0 1152,595.1 1152,550.6 1034.4,0 "/>
<polygon class="st3" points="128,724.8 128,729.1 1038.3,1024 1051.8,1024 "/>
<polygon class="st3" points="1152,615 1152,595.1 1024.9,0 1020.7,0 "/>
<polygon class="st3" points="1066.8,1024 128,719.9 128,724.8 1051.8,1024 "/>
<polygon class="st3" points="1152,637.2 1152,615 1020.7,0 1016,0 "/>
<polygon class="st3" points="1152,647.2 1152,637.2 1016,0 1013.8,0 "/>
<polygon class="st3" points="128,717.7 128,719.9 1066.8,1024 1073.6,1024 "/>
<polygon class="st3" points="1011.7,0 1152,657.1 1152,647.2 1013.8,0 "/>
<polygon class="st3" points="128,715.5 128,717.7 1073.6,1024 1080.3,1024 "/>
<polygon class="st3" points="128,713.9 128,715.5 1080.3,1024 1085.5,1024 "/>
<polygon class="st3" points="1152,664.7 1152,657.1 1011.7,0 1010.1,0 "/>
<polygon class="st3" points="1087.1,1024 128,713.3 128,713.9 1085.5,1024 "/>
<polygon class="st3" points="1152,667.1 1152,664.7 1010.1,0 1009.6,0 "/>
<polygon class="st3" points="1152,674.7 1152,667.1 1009.6,0 1008,0 "/>
<polygon class="st3" points="128,711.7 128,713.3 1087.1,1024 1092.2,1024 "/>
<polygon class="st3" points="128,709.5 128,711.7 1092.2,1024 1098.9,1024 "/>
<polygon class="st3" points="1005.8,0 1152,684.6 1152,674.7 1008,0 "/>
<polygon class="st3" points="128,707.3 128,709.5 1098.9,1024 1105.7,1024 "/>
<polygon class="st3" points="1152,694.5 1152,684.6 1005.8,0 1003.7,0 "/>
<polygon class="st3" points="1112.4,1024 128,705.1 128,707.3 1105.7,1024 "/>
<polygon class="st3" points="1152,704.5 1152,694.5 1003.7,0 1001.6,0 "/>
<polygon class="st3" points="1152,716.8 1152,704.5 1001.6,0 999,0 "/>
<polygon class="st3" points="128,702.4 128,705.1 1112.4,1024 1120.7,1024 "/>
<polygon class="st3" points="994.7,0 1152,736.7 1152,716.8 999,0 "/>
<polygon class="st3" points="128,698.1 128,702.4 1120.7,1024 1134.2,1024 "/>
<polygon class="st3" points="1152,756.5 1152,736.7 994.7,0 990.5,0 "/>
<polygon class="st3" points="128,693.7 128,698.1 1134.2,1024 1147.7,1024 "/>
<polygon class="st3" points="1152,1024 1152,1021 128,689.3 128,693.7 1147.7,1024 "/>
<polygon class="st3" points="1152,776.4 1152,756.5 990.5,0 986.2,0 "/>
<polygon class="st3" points="1152,818.6 1152,776.4 986.2,0 977.2,0 "/>
<polygon class="st3" points="128,680.1 128,689.3 1152,1021 1152,1011.8 "/>
<polygon class="st3" points="128,673.6 128,680.1 1152,1011.8 1152,1005.3 "/>
<polygon class="st3" points="970.9,0 1152,848.3 1152,818.6 977.2,0 "/>
<polygon class="st3" points="128,664.8 128,673.6 1152,1005.3 1152,996.6 "/>
<polygon class="st3" points="1152,888 1152,848.3 970.9,0 962.4,0 "/>
<polygon class="st3" points="1152,920.2 1152,888 962.4,0 955.5,0 "/>
<polygon class="st3" points="1152,989.5 128,657.8 128,664.8 1152,996.6 "/>
<polygon class="st3" points="955.5,0 942.8,0 1151.2,976.2 128,644.7 128,657.8 1152,989.5 1152,920.2 "/>
<polygon class="st3" points="1142.9,967 128,638.2 128,644.7 1151.2,976.2 942.8,0 936.5,0 "/>
<polygon class="st3" points="936.5,0 930.2,0 1134.6,957.8 128,631.7 128,638.2 1142.9,967 "/>
<polygon class="st3" points="1120.8,942.4 128,620.8 128,631.7 1134.6,957.8 930.2,0 919.6,0 "/>
<polygon class="st3" points="919.6,0 912.7,0 1111.8,932.4 128,613.7 128,620.8 1120.8,942.4 "/>
<polygon class="st3" points="1092.4,911 128,598.6 128,613.7 1111.8,932.4 912.7,0 897.9,0 "/>
<polygon class="st3" points="897.9,0 889.5,0 1081.4,898.7 128,589.9 128,598.6 1092.4,911 "/>
<polygon class="st3" points="1066.8,882.6 128,578.5 128,589.9 1081.4,898.7 889.5,0 878.4,0 "/>
<polygon class="st3" points="878.4,0 872.1,0 1058.6,873.4 128,572 128,578.5 1066.8,882.6 "/>
<polygon class="st3" points="1050.3,864.3 128,565.5 128,572 1058.6,873.4 872.1,0 865.8,0 "/>
<polygon class="st3" points="865.8,0 858.9,0 1041.3,854.3 128,558.4 128,565.5 1050.3,864.3 "/>
<polygon class="st3" points="1029.5,841.2 128,549.2 128,558.4 1041.3,854.3 858.9,0 849.9,0 "/>
<polygon class="st3" points="849.9,0 840.9,0 1017.7,828.1 128,539.9 128,549.2 1029.5,841.2 "/>
<polygon class="st3" points="1005.2,814.2 128,530.1 128,539.9 1017.7,828.1 840.9,0 831.3,0 "/>
<polygon class="st3" points="831.3,0 824.4,0 996.1,804.2 128,523 128,530.1 1005.2,814.2 "/>
<polygon class="st3" points="984.3,791.2 128,513.8 128,523 996.1,804.2 824.4,0 815.4,0 "/>
<polygon class="st3" points="815.4,0 805.4,0 971.3,776.6 128,503.5 128,513.8 984.3,791.2 "/>
<polygon class="st3" points="970.5,775.8 128,502.9 128,503.5 971.3,776.6 805.4,0 804.9,0 "/>
<polygon class="st3" points="804.9,0 792.7,0 954.5,758.1 128,490.3 128,502.9 970.5,775.8 "/>
<polygon class="st3" points="944.7,747.2 128,482.7 128,490.3 954.5,758.1 792.7,0 785.2,0 "/>
<polygon class="st3" points="785.2,0 772,0 927.4,728.1 128,469.1 128,482.7 944.7,747.2 "/>
<polygon class="st3" points="914.9,714.2 128,459.3 128,469.1 927.4,728.1 772,0 762.4,0 "/>
<polygon class="st3" points="762.4,0 749.2,0 897.6,695 128,445.7 128,459.3 914.9,714.2 "/>
<polygon class="st3" points="883.1,678.9 128,434.3 128,445.7 897.6,695 749.2,0 738.1,0 "/>
<polygon class="st3" points="738.1,0 722.2,0 862.2,655.8 128,417.9 128,434.3 883.1,678.9 "/>
<polygon class="st3" points="844.9,636.6 128,404.4 128,417.9 862.2,655.8 722.2,0 709,0 "/>
<polygon class="st3" points="709,0 697.9,0 830.4,620.5 128,393 128,404.4 844.9,636.6 "/>
<polygon class="st3" points="824.1,613.5 128,388 128,393 830.4,620.5 697.9,0 693.1,0 "/>
<polygon class="st3" points="693.1,0 684.2,0 812.3,600.5 128,378.8 128,388 824.1,613.5 "/>
<polygon class="st3" points="802.6,589.6 128,371.1 128,378.8 812.3,600.5 684.2,0 676.7,0 "/>
<polygon class="st3" points="676.7,0 669.8,0 793.6,579.6 128,364 128,371.1 802.6,589.6 "/>
<polygon class="st3" points="784.5,569.6 128,357 128,364 793.6,579.6 669.8,0 662.9,0 "/>
<polygon class="st3" points="662.9,0 656,0 775.5,559.6 128,349.9 128,357 784.5,569.6 "/>
<polygon class="st3" points="766.5,549.6 128,342.8 128,349.9 775.5,559.6 656,0 649.1,0 "/>
<polygon class="st3" points="649.1,0 644.4,0 760.2,542.7 128,337.9 128,342.8 766.5,549.6 "/>
<polygon class="st3" points="748.4,529.6 128,328.6 128,337.9 760.2,542.7 644.4,0 635.4,0 "/>
<polygon class="st3" points="635.4,0 628.5,0 739.4,519.6 128,321.6 128,328.6 748.4,529.6 "/>
<polygon class="st3" points="730.4,509.6 128,314.5 128,321.6 739.4,519.6 628.5,0 621.6,0 "/>
<polygon class="st3" points="621.6,0 615.3,0 722.1,500.4 128,308 128,314.5 730.4,509.6 "/>
<polygon class="st3" points="713.1,490.4 128,300.9 128,308 722.1,500.4 615.3,0 608.4,0 "/>
<polygon class="st3" points="608.4,0 601.5,0 704.1,480.4 128,293.8 128,300.9 713.1,490.4 "/>
<polygon class="st3" points="695,470.4 128,286.7 128,293.8 704.1,480.4 601.5,0 594.6,0 "/>
<polygon class="st3" points="594.6,0 588.3,0 686.7,461.2 128,280.2 128,286.7 695,470.4 "/>
<polygon class="st3" points="668.7,441.2 128,266.1 128,280.2 686.7,461.2 588.3,0 574.5,0 "/>
<polygon class="st3" points="574.5,0 567.6,0 659.7,431.2 128,259 128,266.1 668.7,441.2 "/>
<polygon class="st3" points="651.4,422 128,252.5 128,259 659.7,431.2 567.6,0 561.3,0 "/>
<polygon class="st3" points="561.3,0 552.3,0 639.6,409 128,243.2 128,252.5 651.4,422 "/>
<polygon class="st3" points="631.3,399.8 128,236.7 128,243.2 639.6,409 552.3,0 546,0 "/>
<polygon class="st3" points="546,0 538.5,0 621.6,389 128,229.1 128,236.7 631.3,399.8 "/>
<polygon class="st3" points="616,382.8 128,224.7 128,229.1 621.6,389 538.5,0 534.3,0 "/>
<polygon class="st3" points="534.3,0 527.4,0 607,372.8 128,217.7 128,224.7 616,382.8 "/>
<polygon class="st3" points="601.5,366.7 128,213.3 128,217.7 607,372.8 527.4,0 523.2,0 "/>
<polygon class="st3" points="523.2,0 518.4,0 595.2,359.8 128,208.4 128,213.3 601.5,366.7 "/>
<polygon class="st3" points="586.2,349.8 128,201.3 128,208.4 595.2,359.8 518.4,0 511.5,0 "/>
<polygon class="st3" points="511.5,0 506.8,0 579.9,342.8 128,196.4 128,201.3 586.2,349.8 "/>
<polygon class="st3" points="566,327.4 128,185.5 128,196.4 579.9,342.8 506.8,0 496.1,0 "/>
<polygon class="st3" points="496.1,0 495.6,0 565.3,326.6 128,184.9 128,185.5 566,327.4 "/>
<polygon class="st3" points="550.1,309.7 128,173 128,184.9 565.3,326.6 495.6,0 484,0 "/>
<polygon class="st3" points="484,0 470.8,0 532.8,290.6 128,159.4 128,173 550.1,309.7 "/>
<polygon class="st3" points="530,287.5 128,157.3 128,159.4 532.8,290.6 470.8,0 468.7,0 "/>
<polygon class="st3" points="468.7,0 462.3,0 521.8,278.3 128,150.8 128,157.3 530,287.5 "/>
<polygon class="st3" points="519,275.3 128,148.6 128,150.8 521.8,278.3 462.3,0 460.2,0 "/>
<polygon class="st3" points="460.2,0 453.3,0 510,265.3 128,141.5 128,148.6 519,275.3 "/>
<polygon class="st3" points="504.5,259.1 128,137.2 128,141.5 510,265.3 453.3,0 449.1,0 "/>
<polygon class="st3" points="449.1,0 442.8,0 496.2,250 128,130.7 128,137.2 504.5,259.1 "/>
<polygon class="st3" points="490.7,243.9 128,126.4 128,130.7 496.2,250 442.8,0 438.6,0 "/>
<polygon class="st3" points="438.6,0 431.7,0 481.7,233.9 128,119.3 128,126.4 490.7,243.9 "/>
<polygon class="st3" points="476.2,227.8 128,115 128,119.3 481.7,233.9 431.7,0 427.6,0 "/>
<polygon class="st3" points="427.6,0 422.8,0 469.9,220.8 128,110.1 128,115 476.2,227.8 "/>
<polygon class="st3" points="458.1,207.8 128,100.8 128,110.1 469.9,220.8 422.8,0 413.8,0 "/>
<polygon class="st3" points="413.8,0 409.6,0 452.6,201.7 128,96.5 128,100.8 458.1,207.8 "/>
<polygon class="st3" points="440.9,188.7 128,87.3 128,96.5 452.6,201.7 409.6,0 400.6,0 "/>
<polygon class="st3" points="400.6,0 396.4,0 435.4,182.6 128,83 128,87.3 440.9,188.7 "/>
<polygon class="st3" points="423.6,169.6 128,73.8 128,83 435.4,182.6 396.4,0 387.4,0 "/>
<polygon class="st3" points="387.4,0 382.6,0 417.3,162.6 128,68.8 128,73.8 423.6,169.6 "/>
<polygon class="st3" points="411.9,156.5 128,64.6 128,68.8 417.3,162.6 382.6,0 378.5,0 "/>
<polygon class="st3" points="378.5,0 376.4,0 409.2,153.5 128,62.4 128,64.6 411.9,156.5 "/>
<polygon class="st3" points="405.6,149.5 128,59.6 128,62.4 409.2,153.5 376.4,0 373.7,0 "/>
<polygon class="st3" points="373.7,0 371.6,0 402.8,146.5 128,57.5 128,59.6 405.6,149.5 "/>
<polygon class="st3" points="400.1,143.5 128,55.3 128,57.5 402.8,146.5 371.6,0 369.5,0 "/>
<polygon class="st3" points="369.5,0 367.4,0 397.4,140.5 128,53.2 128,55.3 400.1,143.5 "/>
<polygon class="st3" points="394.7,137.5 128,51.1 128,53.2 397.4,140.5 367.4,0 365.3,0 "/>
<polygon class="st3" points="365.3,0 362.6,0 391.1,133.5 128,48.2 128,51.1 394.7,137.5 "/>
<polygon class="st3" points="388.4,130.4 128,46.1 128,48.2 391.1,133.5 362.6,0 360.5,0 "/>
<polygon class="st3" points="360.5,0 358.4,0 385.7,127.4 128,44 128,46.1 388.4,130.4 "/>
<polygon class="st3" points="379.3,120.4 128,39 128,44 385.7,127.4 358.4,0 353.6,0 "/>
<polygon class="st3" points="353.6,0 351.5,0 376.6,117.4 128,36.9 128,39 379.3,120.4 "/>
<polygon class="st3" points="373.9,114.4 128,34.7 128,36.9 376.6,117.4 351.5,0 349.5,0 "/>
<polygon class="st3" points="349.5,0 347.4,0 371.2,111.4 128,32.6 128,34.7 373.9,114.4 "/>
<polygon class="st3" points="368.5,108.4 128,30.5 128,32.6 371.2,111.4 347.4,0 345.4,0 "/>
<polygon class="st3" points="345.4,0 340.5,0 362.2,101.4 128,25.5 128,30.5 368.5,108.4 "/>
<polygon class="st3" points="359.5,98.4 128,23.4 128,25.5 362.2,101.4 340.5,0 338.5,0 "/>
<polygon class="st3" points="338.5,0 334.3,0 354.1,92.4 128,19.2 128,23.4 359.5,98.4 "/>
<polygon class="st3" points="347.7,85.4 128,14.2 128,19.2 354.1,92.4 334.3,0 329.5,0 "/>
<polygon class="st3" points="329.5,0 327.4,0 345,82.4 128,12.1 128,14.2 347.7,85.4 "/>
<polygon class="st3" points="336,72.4 128,5 128,12.1 345,82.4 327.4,0 320.5,0 "/>
<polygon class="st3" points="320.5,0 317.8,0 332.3,68.3 128,2.1 128,5 336,72.4 "/>
<polygon class="st3" points="320.6,55.3 149.8,0 128,0 128,2.1 332.3,68.3 317.8,0 308.8,0 "/>
<polygon class="st3" points="308.8,0 304,0 314.3,48.3 165.2,0 149.8,0 320.6,55.3 "/>
<polygon class="st3" points="305.2,38.3 187.1,0 165.2,0 314.3,48.3 304,0 297.1,0 "/>
<polygon class="st3" points="297.1,0 293,0 299.9,32.3 200.1,0 187.1,0 305.2,38.3 "/>
<polygon class="st3" points="290.8,22.3 221.9,0 200.1,0 299.9,32.3 293,0 286.1,0 "/>
<polygon class="st3" points="286.1,0 284,0 288.2,19.4 228.4,0 221.9,0 290.8,22.3 "/>
<polygon class="st3" points="282.9,13.5 241.2,0 228.4,0 288.2,19.4 284,0 280,0 "/>
<polygon class="st3" points="280,0 277.2,0 279.2,9.4 250.2,0 241.2,0 282.9,13.5 "/>
<polygon class="st3" points="273.9,3.5 263,0 250.2,0 279.2,9.4 277.2,0 273.1,0 "/>
<polygon class="st3" points="273.1,0 263,0 273.9,3.5 "/>
</svg>
